<?xml version="1.0" encoding="UTF-8"?>
<svg xmlns="http://www.w3.org/2000/svg" xmlns:xlink="http://www.w3.org/1999/xlink" viewBox="0 0 64 64" width="64px" height="64px">
<g id="surface5345095">
<path style=" stroke:none;fill-rule:nonzero;fill:rgb(100%,100%,100%);fill-opacity:1;" d="M 32 6 C 17.640625 6 6 17.640625 6 32 C 6 45 15.539062 55.769531 28 57.691406 L 28 40 L 22 40 L 22 33 L 28 33 L 28 28 C 28 21 32 17 38 17 C 41.132812 17 43 18 43 18 L 43 24 L 39 24 C 36.140625 24 35 26.09375 35 28 L 35 33 L 42 33 L 41 40 L 35 40 L 35 57.820312 C 47.945312 56.335938 58 45.34375 58 32 C 58 17.640625 46.359375 6 32 6 Z M 32 6 "/>
</g>
</svg>
